<svg width="163" height="151" viewBox="0 0 163 151" fill="none" xmlns="http://www.w3.org/2000/svg">
<path d="M62.0231 137.897C63.5551 132.299 64.7336 127.526 66.1773 122.841C68.5933 114.887 71.3333 107.138 76.9607 100.685C82.6765 94.1447 89.8065 91.6699 97.9677 94.0564C102.976 95.5295 107.573 98.3579 112.257 100.744C114.084 101.687 115.675 103.16 118.179 104.958C117.236 100.479 116.441 96.9732 115.793 93.4376C114.172 84.8051 112.198 76.2314 111.167 67.5399C109.694 55.6369 115.704 48.5069 127.725 47.4462C132.439 47.0338 137.3 47.7703 142.103 48.0355C143.547 48.1239 144.961 48.4185 146.67 48.6542C142.25 41.5832 137.949 34.9246 133.942 28.1481C124.602 12.3266 135.12 2.69228 147.789 1.04237C151.177 0.600424 154.742 0.983448 158.19 1.30754C160.488 1.60217 162.373 3.07531 162.02 5.6091C161.725 7.9072 159.663 8.55538 157.482 8.61431C155.332 8.70269 153.151 8.64377 151.06 8.96786C148.614 9.35087 146.139 9.76336 143.812 10.6178C137.271 13.0337 135.326 17.0996 138.096 23.5225C140.041 28.0597 142.663 32.3318 145.196 36.5745C147.554 40.5225 150.117 44.3821 152.68 48.2417C153.976 50.2452 155.214 52.3076 153.976 54.6646C152.562 57.3752 149.881 57.169 147.406 56.9922C144.254 56.786 141.16 56.1083 138.008 56.0788C134.03 55.9905 130.023 55.9905 126.134 56.5208C120.86 57.2574 118.798 59.5554 118.827 64.8882C118.857 69.9853 119.181 75.2002 120.035 80.2383C121.921 91.0217 124.16 101.687 126.429 112.382C126.959 114.916 126.93 117.067 124.72 118.569C122.628 120.013 120.625 119.129 118.768 117.744C115.469 115.27 112.228 112.618 108.81 110.32C105.805 108.316 102.682 106.313 99.3819 104.899C90.5725 101.098 84.6799 102.984 79.1704 110.791C75.0161 116.654 72.1288 123.136 70.0664 129.971C68.5638 134.892 67.3853 139.9 66.0889 144.85C65.4113 147.472 64.7042 150.183 61.4338 150.566C58.3402 150.89 56.6903 148.651 55.1877 146.382C54.569 145.41 54.0976 144.349 53.5967 143.318C52.6244 141.226 51.5048 139.164 50.7388 136.984C44.9347 120.809 32.2656 115.387 16.4441 115.181C13.5273 115.152 10.581 116.036 7.66423 116.595C6.22055 116.861 4.80634 117.568 3.36266 117.656C2.33147 117.744 0.769936 117.42 0.357461 116.713C-0.113947 115.947 0.239607 114.415 0.563699 113.502C1.30026 111.528 3.30375 109.878 5.13044 109.112C8.75436 107.609 12.614 106.283 16.4736 105.9C25.0178 105.017 33.2968 106.755 41.2813 109.966C48.0872 112.706 52.6834 117.833 55.9243 124.197C57.9867 128.381 59.6955 132.682 62.0231 137.897Z" fill="black"/>
</svg>
